# Blender v2.80 (sub 75) OBJ File: 'kopane2.blend'
# www.blender.org
mtllib kopane.mtl
o Cube_Cube.001
v -0.032702 -0.032702 -4.629837
v -0.032702 0.032702 -4.629837
v 0.032702 -0.032702 -4.629837
v 0.032702 0.032702 -4.629837
v -1.000000 -1.000000 1.793363
v -1.000000 1.000000 1.793363
v 1.000000 -1.000000 1.793363
v 1.000000 1.000000 1.793363
v -1.000000 -1.000000 2.738854
v -1.000000 -1.000000 3.684345
v 1.000000 1.000000 2.738854
v 1.000000 1.000000 3.684345
v -1.000000 1.000000 3.684345
v -1.000000 1.000000 2.738854
v 1.000000 -1.000000 3.684345
v 1.000000 -1.000000 2.738854
v -0.032702 0.010901 -4.629837
v -0.032702 -0.010901 -4.629837
v 0.032702 0.010901 -4.629837
v 0.032702 -0.010901 -4.629837
v 1.000000 0.333333 1.793363
v 1.000000 -0.333333 1.793363
v -1.000000 0.333333 1.793363
v -1.000000 -0.333333 1.793363
v -1.000000 0.484206 3.684345
v -1.000000 -0.519036 3.684345
v -1.000000 0.484206 2.738854
v -1.000000 -0.519036 2.738854
v 1.000000 0.484206 2.738854
v 1.000000 -0.519036 2.738854
v 1.000000 0.484206 3.684345
v 1.000000 -0.519036 3.684345
v -0.701730 -0.701730 4.789133
v -0.750616 -0.750616 4.703529
v -0.718507 -0.718507 4.777664
v -0.736400 -0.736400 4.746331
v -0.701730 0.701730 4.789133
v -0.750616 0.750616 4.703529
v -0.718507 0.718507 4.777664
v -0.736400 0.736400 4.746331
v 0.701730 -0.701730 4.789133
v 0.750616 -0.750616 4.703529
v 0.718507 -0.718507 4.777664
v 0.736400 -0.736400 4.746331
v 0.701730 0.701730 4.789133
v 0.750616 0.750616 4.703529
v 0.718507 0.718507 4.777664
v 0.736400 0.736400 4.746331
v -0.701730 -0.271163 4.789133
v -0.701730 -0.215284 4.789133
v -0.750616 -0.264594 4.703529
v -0.701730 -0.252536 4.789133
v -0.718365 -0.269079 4.777839
v -0.717398 -0.253338 4.778998
v -0.718429 -0.230923 4.776598
v -0.701731 -0.233910 4.789133
v -0.717392 -0.241256 4.779005
v -0.736298 -0.266679 4.745311
v -0.736539 -0.248955 4.746009
v -0.728281 -0.251993 4.762893
v -0.701730 0.271163 4.789133
v -0.750616 0.261896 4.703529
v -0.701730 0.215284 4.789133
v -0.718437 0.268222 4.776588
v -0.701730 0.252536 4.789133
v -0.717397 0.252824 4.778998
v -0.736305 0.247112 4.745296
v -0.736532 0.264836 4.746026
v -0.728281 0.250886 4.762893
v -0.701730 0.233910 4.789133
v -0.718357 0.230068 4.777848
v -0.717392 0.240742 4.779004
v 0.701730 0.271163 4.789133
v 0.701730 0.215284 4.789133
v 0.750616 0.261896 4.703529
v 0.701730 0.252536 4.789133
v 0.718364 0.268222 4.777839
v 0.717397 0.252824 4.778998
v 0.718430 0.230068 4.776597
v 0.701730 0.233910 4.789133
v 0.717392 0.240742 4.779005
v 0.736299 0.264836 4.745310
v 0.736538 0.247112 4.746011
v 0.728281 0.250886 4.762893
v 0.750616 -0.264594 4.703529
v 0.701730 -0.215284 4.789133
v 0.701730 -0.271163 4.789133
v 0.736306 -0.248955 4.745295
v 0.736532 -0.266679 4.746027
v 0.728281 -0.251993 4.762893
v 0.701730 -0.233910 4.789133
v 0.718356 -0.230923 4.777849
v 0.717392 -0.241256 4.779005
v 0.718437 -0.269078 4.776587
v 0.701730 -0.252536 4.789133
v 0.717398 -0.253338 4.778998
vt 0.541667 0.091270
vt 0.625000 0.091270
vt 0.625000 0.250000
vt 0.541667 0.250000
vt 0.625000 0.500000
vt 0.541667 0.500000
vt 0.463120 0.754786
vt 0.536880 0.754786
vt 0.536880 0.995214
vt 0.463120 0.995214
vt 0.625000 0.719576
vt 0.875000 0.719576
vt 0.875000 0.747643
vt 0.625000 0.747643
vt 0.379786 0.754786
vt 0.453547 0.754786
vt 0.453547 0.995214
vt 0.379786 0.995214
vt 0.375000 0.719576
vt 0.458333 0.719576
vt 0.458333 0.747643
vt 0.375000 0.747643
vt 0.875000 0.500000
vt 0.875000 0.658730
vt 0.625000 0.658730
vt 0.125000 0.500000
vt 0.375000 0.500000
vt 0.375000 0.658730
vt 0.125000 0.658730
vt 0.541667 0.658730
vt 0.541667 0.060847
vt 0.625000 0.060847
vt 0.546453 0.754786
vt 0.620214 0.754786
vt 0.620214 0.995214
vt 0.546453 0.995214
vt 0.541667 0.030423
vt 0.625000 0.030423
vt 0.875000 0.689153
vt 0.625000 0.689153
vt 0.375000 0.689153
vt 0.125000 0.689153
vt 0.125000 0.719576
vt 0.541667 0.689153
vt 0.541667 0.719576
vt 0.458333 0.689153
vt 0.458333 0.060847
vt 0.458333 0.658730
vt 0.375000 0.030423
vt 0.458333 0.030423
vt 0.375000 0.060847
vt 0.125000 0.747643
vt 0.541667 0.747643
vt 0.458333 0.091270
vt 0.375000 0.091270
vt 0.458333 0.500000
vt 0.541667 0.002357
vt 0.625000 0.002357
vt 0.458333 0.002357
vt 0.375000 0.250000
vt 0.458333 0.250000
vt 0.456738 0.995214
vt 0.456601 0.997898
vt 0.453904 0.998063
vt 0.459929 0.995214
vt 0.458670 0.997897
vt 0.460440 0.998074
vt 0.458333 1.000000
vt 0.458333 1.000000
vt 0.455785 0.000948
vt 0.457185 0.000229
vt 0.458835 0.000955
vt 0.453904 0.000000
vt 0.456601 0.000000
vt 0.458333 0.997897
vt 0.456831 1.000000
vt 0.545949 0.998076
vt 0.543311 0.997898
vt 0.543262 0.995214
vt 0.545369 1.000000
vt 0.542979 1.000000
vt 0.541253 0.000948
vt 0.542252 0.000229
vt 0.543100 0.000954
vt 0.539413 0.000000
vt 0.541241 0.000000
vt 0.540071 0.995214
vt 0.541242 0.997897
vt 0.539413 0.998062
vt 0.541667 0.997897
vt 0.543262 0.754786
vt 0.543311 0.752102
vt 0.545949 0.751937
vt 0.540071 0.754786
vt 0.541241 0.752103
vt 0.539413 0.751926
vt 0.541043 0.749045
vt 0.542666 0.749772
vt 0.544073 0.749052
vt 0.458650 0.749052
vt 0.457674 0.749771
vt 0.456846 0.749046
vt 0.460440 0.751938
vt 0.458670 0.752103
vt 0.459929 0.754786
vt 0.456738 0.754786
vt 0.456601 0.752102
vt 0.453904 0.751924
vt 0.623088 0.998088
vt 0.625000 1.000000
vt 0.544065 0.000954
vt 0.624729 0.000942
vt 0.376912 0.751912
vt 0.375283 0.749058
vt 0.455795 0.749046
vt 0.374776 0.749058
vt 0.125224 0.749058
vt 0.373088 0.750000
vt 0.126912 0.750000
vt 0.376912 0.998088
vt 0.874776 0.749058
vt 0.625224 0.749058
vt 0.873088 0.750000
vt 0.626912 0.750000
vt 0.623088 0.751912
vt 0.454315 1.000000
vt 0.375000 1.000000
vt 0.375283 0.000942
vt 0.375000 0.002357
vt 0.541667 1.000000
vt 0.458656 0.000955
vt 0.624729 0.749058
vt 0.541247 0.749045
vn -0.9972 0.0000 -0.0746
vn -0.7035 0.7035 -0.1001
vn -0.5344 0.5344 -0.6549
vn -0.6523 0.0000 -0.7579
vn 0.5344 0.5344 -0.6549
vn 0.6523 0.0000 -0.7579
vn 0.3017 0.0026 0.9534
vn 0.3074 -0.0068 0.9515
vn -0.3014 -0.0026 0.9535
vn -0.3076 0.0066 0.9515
vn 0.6986 0.6986 0.1547
vn -0.6986 0.6986 0.1547
vn -0.6574 0.6574 0.3684
vn 0.6568 0.6572 0.3696
vn 0.2361 -0.2281 0.9445
vn 0.3039 -0.0095 0.9526
vn -0.2919 -0.0031 0.9564
vn -0.2271 -0.2277 0.9468
vn 0.6986 -0.6986 0.1547
vn 0.9336 0.3172 -0.1664
vn 0.9601 0.0015 0.2794
vn 0.6574 -0.6574 0.3684
vn 0.7035 0.7035 -0.1001
vn -0.5344 -0.5344 -0.6549
vn 0.5344 -0.5344 -0.6549
vn 0.7035 -0.7035 -0.1001
vn -0.7035 -0.7035 -0.1001
vn 0.9972 0.0000 -0.0746
vn -0.9045 -0.3015 0.3015
vn -0.7071 0.7071 0.0000
vn 0.2921 0.0030 0.9564
vn 0.2271 0.2277 0.9468
vn -0.2361 0.2281 0.9445
vn -0.3043 0.0093 0.9525
vn -0.9336 -0.3172 -0.1664
vn 0.7071 0.7071 0.0000
vn 0.7071 -0.7071 0.0000
vn -0.7071 -0.7071 0.0000
vn -0.6986 -0.6986 0.1547
vn 0.9045 -0.3015 0.3015
vn 0.9336 -0.3172 -0.1664
vn 0.9045 0.3015 0.3015
vn -0.9045 0.3015 0.3015
vn -0.9336 0.3172 -0.1664
vn -0.6568 -0.6572 0.3696
vn 0.9597 0.0014 0.2811
vn -0.9601 -0.0015 0.2795
vn -0.9597 -0.0014 0.2812
vn -0.2859 -0.0032 0.9582
vn -0.7088 -0.0179 0.7052
vn -0.7362 -0.0180 0.6765
vn -0.3016 0.0147 0.9533
vn -0.7167 0.0382 0.6963
vn -0.7576 0.0347 0.6518
vn -0.9233 -0.0017 0.3841
vn -0.8746 0.0110 0.4846
vn -0.9175 -0.0167 0.3974
vn -0.7418 0.0290 0.6700
vn -0.7081 0.0291 0.7055
vn -0.2924 0.0104 0.9562
vn -0.9175 -0.0018 0.3977
vn -0.8738 -0.0051 0.4862
vn -0.9247 -0.0183 0.3802
vn -0.7449 -0.0206 0.6668
vn -0.7165 -0.0265 0.6970
vn -0.2888 -0.0045 0.9574
vn 0.2861 0.0033 0.9582
vn 0.7092 0.0184 0.7047
vn 0.7366 0.0182 0.6760
vn 0.3009 -0.0144 0.9535
vn 0.7161 -0.0375 0.6970
vn 0.7564 -0.0343 0.6532
vn 0.9228 0.0016 0.3851
vn 0.8744 -0.0097 0.4850
vn 0.9179 0.0168 0.3963
vn 0.9253 0.0184 0.3788
vn 0.8739 0.0061 0.4860
vn 0.9172 0.0020 0.3984
vn 0.7455 0.0208 0.6661
vn 0.7172 0.0272 0.6963
vn 0.2890 0.0046 0.9573
vn 0.2919 -0.0102 0.9564
vn 0.7075 -0.0286 0.7060
vn 0.7410 -0.0287 0.6709
vn -0.4805 0.4783 0.7350
vn -0.6084 0.6092 0.5086
vn 0.4805 -0.4783 0.7350
vn 0.6084 -0.6092 0.5086
vn -0.6096 -0.6090 0.5073
vn -0.4814 -0.4797 0.7336
vn 0.6096 0.6090 0.5073
vn 0.4814 0.4797 0.7336
usemtl None
s 1
f 23/1/1 6/2/2 2/3/3 17/4/4
f 17/4/4 2/3/3 4/5/5 19/6/6
f 86/7/7 74/8/8 63/9/9 50/10/10
f 12/11/11 13/12/12 38/13/13 46/14/14
f 41/15/15 87/16/16 49/17/17 33/18/18
f 15/19/19 32/20/20 85/21/21 42/22/22
f 4/5/5 2/23/3 6/24/2 8/25/23
f 1/26/24 3/27/25 7/28/26 5/29/27
f 19/6/6 4/5/5 8/25/23 21/30/28
f 27/31/29 14/32/30 6/2/2 23/1/1
f 73/33/31 45/34/32 37/35/33 61/36/34
f 25/37/35 13/38/12 14/32/30 27/31/29
f 8/25/23 6/24/2 14/39/30 11/40/36
f 11/40/36 14/39/30 13/12/12 12/11/11
f 5/29/27 7/28/26 16/41/37 9/42/38
f 9/42/38 16/41/37 15/19/19 10/43/39
f 21/30/28 8/25/23 11/40/36 29/44/40
f 29/44/40 11/40/36 12/11/11 31/45/41
f 16/41/37 30/46/42 32/20/20 15/19/19
f 28/47/43 30/46/42 29/44/40 27/31/29
f 7/28/26 22/48/28 30/46/42 16/41/37
f 22/48/28 21/30/28 29/44/40 30/46/42
f 10/49/39 26/50/44 28/47/43 9/51/38
f 30/46/42 28/47/43 26/50/44 32/20/20
f 10/43/39 15/19/19 42/22/22 34/52/45
f 32/20/20 31/45/41 75/53/46 85/21/21
f 9/51/38 28/47/43 24/54/1 5/55/27
f 28/47/43 27/31/29 23/1/1 24/54/1
f 3/27/25 20/56/6 22/48/28 7/28/26
f 20/56/6 19/6/6 21/30/28 22/48/28
f 62/57/47 38/58/13 13/38/12 25/37/35
f 51/59/48 62/57/47 25/37/35 26/50/44
f 31/45/41 12/11/11 46/14/14 75/53/46
f 1/60/24 18/61/4 20/56/6 3/27/25
f 18/61/4 17/4/4 19/6/6 20/56/6
f 5/55/27 24/54/1 18/61/4 1/60/24
f 24/54/1 23/1/1 17/4/4 18/61/4
f 26/50/44 25/37/35 31/45/41 32/20/20
f 29/44/40 31/45/41 25/37/35 27/31/29
f 49/17/17 52/62/49 54/63/50 53/64/51
f 52/62/49 56/65/52 57/66/53 54/63/50
f 50/10/10 55/67/54 57/66/53 56/65/52
f 55/67/54 59/68/55 60/69/56 57/66/53
f 51/59/48 58/70/57 60/71/56 59/72/55
f 58/70/57 53/73/51 54/74/50 60/71/56
f 54/63/50 57/75/53 60/76/56
f 61/36/34 64/77/58 66/78/59 65/79/60
f 64/77/58 68/80/61 69/81/62 66/78/59
f 62/57/47 67/82/63 69/83/62 68/84/61
f 67/82/63 71/85/64 72/86/65 69/83/62
f 63/9/9 70/87/66 72/88/65 71/89/64
f 70/87/66 65/79/60 66/78/59 72/88/65
f 66/78/59 69/81/62 72/90/65
f 73/33/31 76/91/67 78/92/68 77/93/69
f 76/91/67 80/94/70 81/95/71 78/92/68
f 74/8/8 79/96/72 81/95/71 80/94/70
f 79/96/72 83/97/73 84/98/74 81/95/71
f 75/53/46 82/99/75 84/98/74 83/97/73
f 82/99/75 77/93/69 78/92/68 84/98/74
f 78/92/68 81/95/71 84/98/74
f 85/21/21 88/100/76 90/101/77 89/102/78
f 88/100/76 92/103/79 93/104/80 90/101/77
f 86/7/7 91/105/81 93/104/80 92/103/79
f 91/105/81 95/106/82 96/107/83 93/104/80
f 87/16/16 94/108/84 96/107/83 95/106/82
f 94/108/84 89/102/78 90/101/77 96/107/83
f 90/101/77 93/104/80 96/107/83
f 61/36/34 37/35/33 39/109/85 64/77/58
f 64/77/58 39/109/85 40/110/86 68/80/61
f 68/111/61 40/112/86 38/58/13 62/57/47
f 87/16/16 41/15/15 43/113/87 94/108/84
f 94/108/84 43/113/87 44/114/88 89/115/78
f 89/115/78 44/114/88 42/22/22 85/21/21
f 34/52/45 42/22/22 44/116/88 36/117/89
f 36/117/89 44/116/88 43/118/87 35/119/90
f 35/120/90 43/113/87 41/15/15 33/18/18
f 46/14/14 38/13/13 40/121/86 48/122/91
f 48/122/91 40/121/86 39/123/85 47/124/92
f 47/125/92 39/109/85 37/35/33 45/34/32
f 33/18/18 49/17/17 53/64/51 35/120/90
f 35/120/90 53/64/51 58/126/57 36/127/89
f 36/128/89 58/70/57 51/59/48 34/129/45
f 50/10/10 63/9/9 71/89/64 55/67/54
f 55/67/54 71/89/64 67/130/63 59/68/55
f 59/131/55 67/82/63 62/57/47 51/59/48
f 45/34/32 73/33/31 77/93/69 47/125/92
f 47/125/92 77/93/69 82/99/75 48/132/91
f 48/132/91 82/99/75 75/53/46 46/14/14
f 74/8/8 86/7/7 92/103/79 79/96/72
f 79/96/72 92/103/79 88/100/76 83/133/73
f 83/133/73 88/100/76 85/21/21 75/53/46
f 86/7/7 50/10/10 56/65/52 91/105/81
f 91/105/81 56/65/52 52/62/49 95/106/82
f 95/106/82 52/62/49 49/17/17 87/16/16
f 73/33/31 61/36/34 65/79/60 76/91/67
f 76/91/67 65/79/60 70/87/66 80/94/70
f 80/94/70 70/87/66 63/9/9 74/8/8
f 34/129/45 51/59/48 26/50/44 10/49/39
