# Blender v2.80 (sub 75) OBJ File: 'krust.blend'
# www.blender.org
mtllib krust.mtl
o Cube_Cube.001
v -0.861895 -0.437654 2.325187
v -0.861895 0.437654 2.325187
v -0.861895 -0.437654 -1.000000
v -0.861895 0.437654 -1.000000
v 0.861895 -0.437654 2.325187
v 0.861895 0.437654 2.325187
v 0.861895 -0.437654 -1.000000
v 0.861895 0.437654 -1.000000
v -0.861895 -0.437654 5.169497
v -0.861895 0.437654 5.169497
v 0.861895 0.437654 5.169497
v 0.861895 -0.437654 5.169497
v -0.861895 -0.437654 0.662593
v -0.861895 0.437654 0.662593
v 0.861895 -0.437654 0.662593
v 0.861895 0.437654 0.662593
v 2.777294 0.437654 0.662593
v 2.777294 0.437654 2.325187
v 2.777294 -0.437654 2.325187
v 2.777294 -0.437654 0.662593
v -2.683840 -0.437654 0.662593
v -2.683840 -0.437654 2.325187
v -2.683840 0.437654 2.325187
v -2.683840 0.437654 0.662593
vt 0.831044 0.676724
vt 0.831044 0.515086
vt 0.969213 0.515086
vt 0.969213 0.676724
vt 0.831044 0.838362
vt 0.664835 0.838362
vt 0.664835 0.676724
vt 0.831044 0.676724
vt 0.354470 0.216461
vt 0.269402 0.110579
vt 0.414933 0.000000
vt 0.500000 0.105883
vt 0.854470 0.280658
vt 0.723497 0.181141
vt 0.869028 0.000000
vt 1.000000 0.099517
vt 0.138430 0.210095
vt 0.223497 0.315978
vt 0.769402 0.386540
vt 0.638430 0.287023
vt 0.664835 0.676724
vt 0.664835 0.515086
vt 0.831044 0.515086
vt 0.831044 0.676724
vt 0.166209 0.726993
vt 0.000000 0.726993
vt 0.000000 0.497119
vt 0.166209 0.497119
vt 0.166209 0.497119
vt 0.332418 0.497119
vt 0.332418 0.726993
vt 0.166209 0.726993
vt 0.500000 0.397602
vt 0.369028 0.497119
vt 0.684335 0.492423
vt 0.553363 0.392906
vt 0.053363 0.104213
vt 0.184335 0.004696
vt 0.000000 0.888631
vt 0.000000 0.726993
vt 0.138169 0.726993
vt 0.138169 0.888631
vt 0.085067 0.421162
vt 0.000000 0.315279
vt 0.138169 0.888631
vt 0.138169 0.726993
vt 0.276338 0.726993
vt 0.276338 0.888631
vt 0.498626 0.676724
vt 0.332418 0.676724
vt 0.332418 0.497119
vt 0.498626 0.497119
vt 1.000000 0.391236
vt 0.914933 0.497119
vt 0.332418 0.676724
vt 0.498626 0.676724
vt 0.498626 0.856329
vt 0.332418 0.856329
vt 0.664835 1.000000
vt 0.664835 0.838362
vt 0.803004 0.838362
vt 0.803004 1.000000
vt 0.498626 0.676724
vt 0.664835 0.676724
vt 0.664835 0.847566
vt 0.498626 0.847566
vt 0.498626 0.505882
vt 0.664835 0.505882
vt 0.664835 0.676724
vt 0.498626 0.676724
vt 0.500000 0.181840
vt 0.585067 0.075957
vn -1.0000 0.0000 0.0000
vn 0.0000 0.0000 -1.0000
vn 0.0000 -1.0000 0.0000
vn 0.0000 1.0000 0.0000
vn 0.0000 0.0000 1.0000
vn 1.0000 0.0000 0.0000
usemtl Material.002
s off
f 13/1/1 14/2/1 4/3/1 3/4/1
f 3/5/2 4/6/2 8/7/2 7/8/2
f 5/9/3 15/10/3 20/11/3 19/12/3
f 6/13/4 2/14/4 10/15/4 11/16/4
f 13/17/3 15/10/3 5/9/3 1/18/3
f 16/19/4 14/20/4 2/14/4 6/13/4
f 12/21/5 11/22/5 10/23/5 9/24/5
f 5/25/6 6/26/6 11/27/6 12/28/6
f 2/29/1 1/30/1 9/31/1 10/32/1
f 1/18/3 5/9/3 12/33/3 9/34/3
f 8/35/4 4/36/4 14/20/4 16/19/4
f 3/37/3 7/38/3 15/10/3 13/17/3
f 7/39/6 8/40/6 16/41/6 15/42/6
f 13/17/3 1/18/3 22/43/3 21/44/3
f 20/45/6 17/46/6 18/47/6 19/48/6
f 6/49/5 5/50/5 19/51/5 18/52/5
f 16/19/4 6/13/4 18/53/4 17/54/4
f 15/55/2 16/56/2 17/57/2 20/58/2
f 22/59/1 23/60/1 24/61/1 21/62/1
f 14/63/2 13/64/2 21/65/2 24/66/2
f 1/67/5 2/68/5 23/69/5 22/70/5
f 2/14/4 14/20/4 24/71/4 23/72/4
